<?xml version="1.0" encoding="utf-8"?>
<svg width="17" height="16" viewBox="0 0 17 16" fill="none" xmlns="http://www.w3.org/2000/svg">
  <path d="M16.7875 8.94737L16.15 7.89474L15.6613 6.98442L15.3331 6.31579L15.7582 5.89474L14.6094 3.94737L13.7679 2.33474L13.175 0.421053L12.4844 0.210526L11.9 0L11.9 0.842105L11.475 0.842105L11.475 0.421053L5.95 0.421053L5.525 0L0 0L0 0.421053L0.425 0.842105L0.425 1.68421L0.74375 1.68421L1.54063 1.26316L2.66305 1.26316L4.25 2.10526L5.1 2.94737L5.525 2.94737L6.375 2.52632L6.8 2.52632L6.8 2.10526L7.59688 2.10526L7.90372 2.28211L8.3487 2.47579L8.57863 2.89558L8.86932 3.024L8.96113 3.39705L9.31643 3.60084L9.46858 3.89179L10.2 4.21053L10.625 5.05263L10.625 5.89474L10.2 7.15789L10.5192 8.16211L11.05 8L11.05 7.15789L11.9 7.89474L11.9 8.42105L10.9914 8.86442L11.0933 8.96842L12.1125 9.85263L12.3581 10.9474L12.7831 10.9474L13.2081 11.3684L13.6332 12.2105L14.0981 12.2105L14.3769 12.5263L14.4832 13.2632L14.4832 13.4737L14.9184 13.8947L15.3331 13.8947L15.6379 13.4737L15.9834 13.4737L16.2894 13.3912L16.6082 13.0526L17 12.2105L17 9.57895L16.7875 8.94737ZM13.4071 16L13.175 15.7895L13.3012 15.6653L13.6127 15.6232L13.7594 15.4211L14.025 15.3684L14.45 15.4737L14.45 15.7895L13.6816 15.9133L13.4071 16ZM15.1406 15.5789L14.9158 15.4383L14.875 15.3213L14.957 15.2227L16.0365 14.7069L16.3689 14.3061L16.6812 13.6316L16.8406 13.4737L17 13.6842L17 14L16.8466 14.2215L16.5627 14.7549L16.1355 15.1044L15.1406 15.5789Z" fill="#4A5568" />
</svg>